<svg width="220" height="116" viewBox="0 0 220 116" fill="none" xmlns="http://www.w3.org/2000/svg">
<path d="M116.568 76.5859C114.439 76.5859 112.477 76.0391 110.68 74.9453C108.902 73.8516 107.477 72.3965 106.402 70.5801C105.348 68.7441 104.82 66.7324 104.82 64.5449V61.791C104.82 61.5762 104.918 61.4688 105.113 61.4688H111.852C112.008 61.4688 112.086 61.5762 112.086 61.791V64.5449C112.086 65.8535 112.525 66.9863 113.404 67.9434C114.283 68.8809 115.338 69.3496 116.568 69.3496C117.818 69.3496 118.883 68.8711 119.762 67.9141C120.641 66.9375 121.08 65.8145 121.08 64.5449C121.08 63.0801 120.123 61.8008 118.209 60.707C117.896 60.5117 117.486 60.2773 116.979 60.0039C116.49 59.7109 115.904 59.3789 115.221 59.0078C114.537 58.6367 113.873 58.2754 113.229 57.9238C112.584 57.5527 111.959 57.2012 111.354 56.8691C109.166 55.5801 107.535 53.9688 106.461 52.0352C105.406 50.082 104.879 47.8945 104.879 45.4727C104.879 43.2461 105.426 41.2344 106.52 39.4375C107.613 37.6602 109.039 36.2539 110.797 35.2188C112.574 34.1641 114.498 33.6367 116.568 33.6367C118.697 33.6367 120.65 34.1641 122.428 35.2188C124.205 36.293 125.621 37.7188 126.676 39.4961C127.75 41.2734 128.287 43.2656 128.287 45.4727V50.3945C128.287 50.5508 128.209 50.6289 128.053 50.6289H121.314C121.158 50.6289 121.08 50.5508 121.08 50.3945L121.021 45.4727C121.021 44.0664 120.582 42.9238 119.703 42.0449C118.824 41.166 117.779 40.7266 116.568 40.7266C115.338 40.7266 114.283 41.1953 113.404 42.1328C112.525 43.0703 112.086 44.1836 112.086 45.4727C112.086 46.7812 112.359 47.875 112.906 48.7539C113.473 49.6328 114.498 50.4727 115.982 51.2734C116.139 51.3516 116.5 51.5469 117.066 51.8594C117.633 52.1719 118.258 52.5234 118.941 52.9141C119.645 53.2852 120.279 53.627 120.846 53.9395C121.412 54.2324 121.754 54.4082 121.871 54.4668C123.863 55.5801 125.436 56.9473 126.588 58.5684C127.76 60.1895 128.346 62.1816 128.346 64.5449C128.346 66.8301 127.818 68.8809 126.764 70.6973C125.689 72.5137 124.264 73.9492 122.486 75.0039C120.709 76.0586 118.736 76.5859 116.568 76.5859Z" fill="#D4F9BA"/>
<line x1="117" y1="82.0182" x2="117" y2="26.9818" stroke="#64DD17" stroke-width="6"/>
<path d="M10.0312 78H2.78125C2.61458 78 2.53125 77.8958 2.53125 77.6875L2.65625 33.7188C2.65625 33.5521 2.73958 33.4688 2.90625 33.4688H15.8438C18.1562 33.4688 20.2812 34.0312 22.2188 35.1562C24.1562 36.2812 25.6979 37.7917 26.8438 39.6875C28.0104 41.5833 28.5938 43.7292 28.5938 46.125C28.5938 47.6875 28.3542 49.1042 27.875 50.375C27.3958 51.6458 26.8333 52.7188 26.1875 53.5938C25.5625 54.4688 24.9896 55.1146 24.4688 55.5312C26.7812 58.0938 27.9375 61.1042 27.9375 64.5625L28 77.6875C28 77.8958 27.8958 78 27.6875 78H20.4375C20.2708 78 20.1875 77.9375 20.1875 77.8125V64.5625C20.1875 63.0208 19.6458 61.6875 18.5625 60.5625C17.4792 59.4375 16.1458 58.875 14.5625 58.875H10.3438L10.2812 77.6875C10.2812 77.8958 10.1979 78 10.0312 78ZM15.8438 41.125H10.3438V51.1875H15.8438C17.1562 51.1875 18.3229 50.6979 19.3438 49.7188C20.3854 48.7396 20.9062 47.5417 20.9062 46.125C20.9062 44.7708 20.4062 43.6042 19.4062 42.625C18.4062 41.625 17.2188 41.125 15.8438 41.125ZM40.9688 78H33.7188C33.5104 78 33.4062 77.8958 33.4062 77.6875L33.4688 33.7188C33.4688 33.5521 33.5521 33.4688 33.7188 33.4688H40.9062C41.0729 33.4688 41.1562 33.5521 41.1562 33.7188L41.2188 77.6875C41.2188 77.8958 41.1354 78 40.9688 78ZM67.9062 82.0938L63.5 77.625C61.9375 78.2917 60.3333 78.625 58.6875 78.625C56.4167 78.625 54.3333 78.0521 52.4375 76.9062C50.5208 75.7604 48.9792 74.2083 47.8125 72.25C46.6667 70.2708 46.0938 68.1146 46.0938 65.7812L46.1562 45.5C46.1562 43.2292 46.7188 41.125 47.8438 39.1875C48.9479 37.25 50.4479 35.6979 52.3438 34.5312C54.2396 33.3438 56.3542 32.75 58.6875 32.75C60.9583 32.75 63.0417 33.3125 64.9375 34.4375C66.8333 35.5833 68.3438 37.1146 69.4688 39.0312C70.6146 40.9479 71.1875 43.1042 71.1875 45.5L71.25 65.7812C71.25 67.0104 71.0729 68.2083 70.7188 69.375C70.3854 70.5208 69.9375 71.5833 69.375 72.5625L73.3438 76.5938C73.5521 76.7604 73.5729 76.9062 73.4062 77.0312L68.375 82.0938C68.2292 82.2188 68.0729 82.2188 67.9062 82.0938ZM58.6875 70.9062C60.1458 70.9062 61.3125 70.3646 62.1875 69.2812C63.0625 68.1771 63.5 67.0104 63.5 65.7812L63.4375 45.5C63.4375 44.125 62.9896 42.9375 62.0938 41.9375C61.1979 40.9375 60.0625 40.4375 58.6875 40.4375C57.25 40.4375 56.0938 40.9479 55.2188 41.9688C54.3438 42.9896 53.9062 44.1667 53.9062 45.5V65.7812C53.9062 67.3229 54.4062 68.5625 55.4062 69.5C56.4062 70.4375 57.5 70.9062 58.6875 70.9062ZM88.4375 78.625C86.1875 78.625 84.1042 78.0417 82.1875 76.875C80.2708 75.7083 78.7396 74.1458 77.5938 72.1875C76.4688 70.2083 75.9062 68.0521 75.9062 65.7188L76.0312 33.7188C76.0312 33.5521 76.1146 33.4688 76.2812 33.4688H83.4688C83.6354 33.4688 83.7188 33.5521 83.7188 33.7188V65.7188C83.7188 67.1562 84.1771 68.3854 85.0938 69.4062C86.0104 70.4062 87.125 70.9062 88.4375 70.9062C89.8125 70.9062 90.9583 70.4062 91.875 69.4062C92.7917 68.3854 93.25 67.1562 93.25 65.7188V33.7188C93.25 33.5521 93.3333 33.4688 93.5 33.4688H100.688C100.854 33.4688 100.938 33.5521 100.938 33.7188L101.062 65.7188C101.062 68.0729 100.5 70.2396 99.375 72.2188C98.2292 74.1771 96.7083 75.7396 94.8125 76.9062C92.9167 78.0521 90.7917 78.625 88.4375 78.625Z" fill="black"/>
<path d="M139.5 78H133.094C132.76 78 132.594 77.8542 132.594 77.5625L132.531 33.9688C132.531 33.6354 132.698 33.4688 133.031 33.4688H138.812L149.625 58.6875L149.312 33.9688C149.312 33.6354 149.5 33.4688 149.875 33.4688H156.219C156.469 33.4688 156.594 33.6354 156.594 33.9688L156.656 77.625C156.656 77.875 156.552 78 156.344 78H150.719L139.625 54.4375L140.094 77.5C140.094 77.8333 139.896 78 139.5 78ZM169.719 78H162.469C162.302 78 162.219 77.8958 162.219 77.6875L162.281 33.7188C162.281 33.5521 162.385 33.4688 162.594 33.4688H169.719C169.927 33.4688 170.031 33.5521 170.031 33.7188L169.969 51.125H179.562V33.7188C179.562 33.5521 179.646 33.4688 179.812 33.4688H186.938C187.146 33.4688 187.25 33.5521 187.25 33.7188L187.375 77.6875C187.375 77.8958 187.271 78 187.062 78H179.875C179.667 78 179.562 77.8958 179.562 77.6875V58.875H169.969V77.6875C169.969 77.8958 169.885 78 169.719 78ZM204.438 78.625C202.167 78.625 200.073 78.0417 198.156 76.875C196.26 75.7083 194.729 74.1562 193.562 72.2188C192.417 70.2604 191.844 68.1146 191.844 65.7812L191.906 45.5C191.906 43.125 192.479 40.9896 193.625 39.0938C194.75 37.1771 196.271 35.6458 198.188 34.5C200.104 33.3333 202.188 32.75 204.438 32.75C206.771 32.75 208.865 33.3229 210.719 34.4688C212.594 35.6146 214.094 37.1562 215.219 39.0938C216.365 41.0104 216.938 43.1458 216.938 45.5L217 65.7812C217 68.1146 216.438 70.25 215.312 72.1875C214.167 74.1458 212.646 75.7083 210.75 76.875C208.854 78.0417 206.75 78.625 204.438 78.625ZM204.438 70.9062C205.729 70.9062 206.854 70.3854 207.812 69.3438C208.771 68.2812 209.25 67.0938 209.25 65.7812L209.188 45.5C209.188 44.0833 208.74 42.8854 207.844 41.9062C206.948 40.9271 205.812 40.4375 204.438 40.4375C203.125 40.4375 202 40.9167 201.062 41.875C200.125 42.8333 199.656 44.0417 199.656 45.5V65.7812C199.656 67.1771 200.125 68.3854 201.062 69.4062C202 70.4062 203.125 70.9062 204.438 70.9062Z" fill="black"/>
</svg>
